<svg class="play-button" x="25" y="25" width="50" height="50" viewBox="0 0 100 100">
                    <filter id="dropshadow" height="150%" width="150%">
                    <feGaussianBlur in="SourceAlpha" stdDeviation="5"></feGaussianBlur>
                    <feOffset dx="4" dy="4" result="offsetblur"></feOffset>
                    <feComponentTransfer>
                    <feFuncA type="linear" slope="0.4"></feFuncA>
                    </feComponentTransfer>
                    <feMerge>
                    <feMergeNode></feMergeNode>
                    <feMergeNode in="SourceGraphic"></feMergeNode>
                    </feMerge>
                    </filter> 
                    <g><g>
                    <path style="filter: url(#dropshadow);" fill="#ffffff" class="st0" d="M 27.28 25 c 0.26 0 0.54 0 0.8 0 c 1.1 0.12 1.96 0.8 2.86 1.32 c 3.14 1.74 6.28 3.52 9.4 5.28 c 3.88 2.2 7.78 4.38 11.66 6.56 c 4.1 2.3 8.22 4.62 12.32 6.92 c 1.82 1.02 3.66 2.04 5.48 3.1 c 0.98 0.58 1.54 1.4 1.48 2.58 c -0.06 0.92 -0.52 1.6 -1.26 2.1 c -1.02 0.66 -2.1 1.22 -3.16 1.82 c -2.52 1.42 -5.02 2.82 -7.54 4.24 c -3.1 1.74 -6.22 3.5 -9.32 5.24 c -3.4 1.92 -6.78 3.82 -10.18 5.74 c -3.52 1.98 -7.02 3.94 -10.54 5.92 c -0.38 0.22 -0.8 0.28 -1.22 0.38 c -0.26 0 -0.54 0 -0.8 0 c -1.58 -0.3 -2.26 -1.14 -2.26 -2.76 c 0 -15.22 0 -30.42 0 -45.64 c 0 -0.46 0.02 -0.9 0.22 -1.32 c 0.44 -0.9 1.08 -1.42 2.06 -1.48 Z"></path>
                    </g></g></svg>